<?xml version="1.0" standalone="no"?>
<!DOCTYPE svg PUBLIC "-//W3C//DTD SVG 20010904//EN"
 "http://www.w3.org/TR/2001/REC-SVG-20010904/DTD/svg10.dtd">
<svg version="1.0" xmlns="http://www.w3.org/2000/svg"
 width="300.000000pt" height="232.000000pt" viewBox="0 0 300.000000 232.000000"
 preserveAspectRatio="xMidYMid meet">
<metadata>
Created by potrace 1.10, written by Peter Selinger 2001-2011
</metadata>
<g transform="translate(0.000000,232.000000) scale(0.100000,-0.100000)"
fill="#000000" stroke="none">
<path d="M1309 2214 c-232 -42 -459 -183 -605 -377 -55 -73 -134 -231 -137
-274 -1 -17 -5 -29 -9 -27 -3 2 -12 -22 -18 -53 -22 -110 -14 -100 -92 -108
l-70 -7 6 -42 c4 -22 9 -56 12 -73 7 -39 17 -35 -153 -64 l-131 -22 109 -128
109 -128 -46 -128 c-25 -70 -52 -143 -60 -162 -13 -30 -13 -33 1 -27 9 3 119
24 245 46 l230 41 88 -88 c48 -49 114 -106 147 -128 78 -51 193 -108 204 -100
5 3 11 0 13 -5 5 -17 144 -50 240 -58 114 -10 248 1 345 28 85 23 105 34 96
56 -6 17 13 19 23 2 5 -7 2 -8 -7 -3 -11 6 -11 5 -3 -4 14 -15 107 29 199 94
68 48 215 198 215 219 0 8 6 16 14 19 19 8 91 138 112 202 9 28 21 55 28 61 6
6 118 29 248 50 131 21 238 41 238 44 0 3 -37 48 -81 100 -45 52 -92 109 -106
127 l-24 32 56 152 c30 83 54 153 53 155 -2 1 -35 -2 -73 -8 l-70 -11 0 -56
c0 -51 -2 -56 -22 -59 -24 -4 -32 13 -10 21 6 3 2 6 -10 6 -19 1 -23 7 -23 36
0 28 -4 35 -20 35 -16 0 -20 -7 -20 -35 l0 -35 -69 0 c-76 0 -93 11 -65 41 17
19 17 20 0 13 -14 -5 -17 -3 -14 7 2 8 14 15 26 17 17 3 21 -3 25 -35 3 -36 4
-35 5 10 2 44 17 65 24 32 2 -9 8 -11 15 -7 10 6 10 21 1 68 l-11 61 -71 -15
c-66 -13 -71 -13 -81 3 -101 174 -247 315 -411 398 -31 15 -60 24 -73 20 -15
-4 -21 -1 -21 10 0 19 -66 41 -189 62 -102 18 -230 18 -332 -1z m406 -61 c161
-46 291 -119 402 -226 35 -33 66 -57 70 -54 3 4 1 7 -6 7 -7 0 -9 5 -6 10 10
16 25 1 25 -25 0 -13 21 -55 48 -93 41 -62 52 -71 87 -77 22 -5 44 -7 49 -6
59 13 64 13 76 -8 8 -17 8 -26 -3 -41 -8 -11 -17 -17 -20 -13 -13 13 -47 -30
-47 -60 l0 -31 -20 22 c-24 25 -28 26 -67 11 -15 -6 -47 -12 -70 -13 -24 -1
-51 -10 -63 -21 -17 -16 -25 -16 -63 -6 -50 15 -124 0 -134 -25 -4 -12 -15
-13 -50 -8 -36 5 -50 3 -72 -14 -19 -13 -32 -17 -42 -11 -8 5 -34 9 -59 9 -36
0 -53 -6 -82 -30 -32 -26 -40 -29 -57 -18 -15 9 -35 9 -93 -1 -40 -7 -108 -15
-150 -18 -43 -2 -78 -9 -78 -14 0 -5 -8 -9 -18 -9 -10 0 -22 -3 -25 -7 -4 -3
-31 -7 -61 -7 -42 -1 -60 -6 -78 -23 -16 -15 -28 -19 -34 -13 -16 16 -56 15
-94 -3 -19 -8 -51 -15 -70 -15 -19 1 -63 -4 -98 -11 -35 -7 -76 -14 -92 -16
-15 -2 -39 -9 -52 -16 -12 -7 -38 -12 -56 -10 -53 4 -64 -12 -60 -90 1 -37 6
-65 10 -63 4 3 8 -12 8 -34 0 -21 7 -60 16 -86 18 -54 6 -51 144 -27 30 5 76
13 103 17 26 4 50 10 53 15 2 5 15 4 29 -1 15 -6 25 -5 27 2 2 5 32 11 67 13
34 1 67 7 73 13 6 6 25 8 43 5 19 -3 35 0 39 6 4 6 22 11 39 11 18 0 43 6 57
13 15 8 40 10 62 6 21 -3 41 -3 44 0 3 3 9 6 12 7 22 2 70 17 85 25 10 5 21 8
25 5 5 -3 26 0 48 5 21 6 61 12 87 14 27 2 54 8 60 14 7 5 39 9 73 8 48 -1 66
3 88 20 21 17 33 20 46 13 32 -17 60 -11 86 17 19 21 27 24 33 14 14 -22 93
-26 132 -5 32 17 64 24 191 42 84 12 92 22 83 107 -4 38 -10 75 -14 80 -5 6
-6 26 -4 46 l5 35 64 1 c49 1 64 -2 64 -13 0 -12 4 -12 19 -2 16 9 25 9 44 -1
13 -7 35 -11 48 -9 19 2 26 12 33 46 8 32 16 44 33 49 13 3 27 2 31 -1 3 -4
-10 -55 -31 -114 -20 -59 -37 -121 -37 -139 0 -25 18 -54 82 -133 84 -104 87
-118 33 -121 -11 0 -27 -2 -35 -4 -8 -2 -71 -13 -140 -25 -69 -12 -140 -28
-157 -35 -31 -13 -33 -13 -33 5 0 12 28 39 80 77 43 31 78 58 77 60 -2 1 -44
-5 -95 -14 -84 -15 -92 -19 -92 -39 0 -64 -79 -260 -141 -351 -16 -23 -29 -46
-28 -50 1 -4 0 -21 -1 -38 l-2 -30 -8 30 -8 30 -2 -35 c-2 -33 -3 -33 -10 -10
-8 23 -9 24 -15 5 -8 -25 -146 -138 -223 -184 -150 -88 -287 -124 -472 -124
-127 0 -218 15 -303 48 -13 6 -16 3 -11 -9 7 -18 -3 -21 -25 -7 -9 6 -10 10
-2 16 7 4 -16 20 -56 40 -37 18 -96 52 -129 76 -115 81 -158 129 -280 307 -3
5 -168 -20 -176 -27 -4 -4 33 -17 83 -30 61 -16 93 -30 100 -42 9 -17 5 -19
-40 -19 -27 0 -61 -4 -74 -9 -13 -5 -44 -12 -68 -14 -24 -3 -66 -10 -94 -16
-98 -20 -125 -20 -125 -2 0 10 16 62 35 117 19 54 35 112 35 128 0 27 -57 109
-137 196 -42 46 -38 49 102 70 62 10 71 9 82 -6 14 -19 14 -17 19 106 1 25 2
51 3 57 0 7 19 16 40 19 22 4 49 15 60 25 11 11 26 19 34 19 9 0 20 22 29 60
14 59 14 60 -6 61 -12 0 -15 3 -8 6 6 2 12 19 12 36 0 18 5 39 10 47 7 11 10
5 10 -25 1 -39 1 -39 31 34 16 41 55 112 87 159 31 47 61 93 66 101 14 25 160
142 229 184 76 46 189 90 282 111 99 22 325 16 420 -11z m865 -599 c0 -13 -4
-24 -10 -24 -5 0 -10 14 -10 31 0 17 4 28 10 24 6 -3 10 -17 10 -31z m-225
-16 c9 -45 44 -252 42 -254 -1 -1 -17 -5 -35 -9 l-32 -7 -41 84 c-22 45 -38
72 -35 58 3 -14 12 -53 19 -87 l15 -61 -27 -5 c-14 -3 -29 -2 -32 1 -6 8 -52
263 -47 267 2 1 17 6 33 9 30 6 32 5 70 -73 21 -45 40 -79 42 -77 3 2 -2 28
-11 57 -31 116 -33 107 26 118 4 0 10 -9 13 -21z m-226 -53 c21 -28 41 -105
41 -161 0 -23 4 -33 11 -28 13 8 29 -13 29 -38 0 -11 -8 -18 -20 -18 -23 0
-26 10 -8 28 7 7 8 12 3 12 -5 0 -19 -12 -30 -26 -15 -19 -33 -27 -67 -31 -73
-8 -100 32 -114 174 -6 57 -5 63 19 87 37 37 107 37 136 1z m-209 -13 c0 -13
40 -235 46 -253 3 -13 -4 -18 -31 -21 -19 -2 -35 -1 -35 2 0 8 -38 220 -45
247 -3 15 0 23 12 26 30 8 53 7 53 -1z m-115 -37 c31 -30 32 -51 3 -59 -33 -9
-35 -8 -41 14 -7 29 -39 26 -35 -2 2 -16 18 -30 50 -45 53 -25 70 -50 70 -99
0 -43 -15 -61 -59 -73 -47 -13 -81 1 -98 41 -16 40 -12 48 26 48 22 0 29 -5
29 -20 0 -14 7 -20 21 -20 15 0 20 5 17 23 -2 15 -19 31 -52 48 -57 31 -66 43
-66 90 0 70 85 105 135 54z m-205 -25 c25 -14 44 -73 31 -98 -8 -15 -5 -29 9
-58 11 -21 20 -45 20 -54 0 -9 5 -21 12 -28 15 -15 11 -18 -34 -26 l-37 -7 -7
46 c-4 30 -13 49 -26 56 -28 15 -31 7 -19 -52 6 -28 10 -53 9 -54 -2 -1 -17
-5 -34 -8 l-32 -6 -7 56 -7 56 -61 -7 c-33 -3 -62 -8 -64 -10 -2 -2 -1 -16 3
-30 6 -25 9 -27 50 -20 36 5 44 3 44 -9 0 -8 2 -22 6 -30 4 -11 -7 -16 -43
-20 -26 -3 -61 -9 -78 -12 l-30 -6 -19 113 c-11 62 -21 125 -23 139 -5 25 -2
26 67 38 40 6 74 10 76 8 2 -2 5 -14 6 -28 3 -21 -2 -25 -37 -29 -35 -4 -40
-8 -37 -29 3 -32 3 -32 38 -22 16 5 23 10 17 10 -21 2 -15 21 6 21 14 0 21 -8
24 -27 3 -23 4 -21 6 10 1 38 16 50 25 20 3 -10 3 5 0 34 l-6 52 39 6 c21 4
43 8 48 10 20 7 47 5 65 -5z m-367 -162 c11 -62 21 -125 24 -139 4 -22 1 -27
-22 -33 -15 -4 -29 -5 -31 -3 -3 2 -11 49 -18 103 l-14 99 -3 -70 c-2 -38 -4
-86 -4 -105 -1 -30 -5 -35 -26 -38 -24 -3 -28 4 -59 85 -18 48 -37 92 -41 97
-7 8 -4 -8 24 -131 13 -54 13 -62 0 -67 -45 -18 -48 -11 -72 130 -13 74 -21
137 -20 138 2 2 23 6 46 10 46 7 39 16 87 -119 l15 -40 0 87 c1 96 -5 86 66
101 11 3 22 5 25 6 3 0 13 -50 23 -111z m-292 -46 c9 -53 20 -113 24 -133 6
-34 5 -37 -20 -43 -15 -4 -30 -5 -32 -2 -3 3 -10 45 -16 93 -14 125 -27 126
-27 1 0 -104 0 -106 -24 -110 -22 -5 -27 1 -52 71 -15 42 -31 87 -36 100 -19
51 -16 11 6 -82 13 -53 21 -99 18 -102 -3 -3 -17 -5 -32 -5 -26 0 -27 2 -49
126 -12 70 -23 132 -24 137 -2 10 82 31 90 23 2 -2 17 -41 33 -87 l30 -84 0
92 0 92 43 9 c23 5 44 7 47 5 2 -2 12 -48 21 -101z m-121 68 c0 -19 -5 -30
-14 -30 -10 0 -14 10 -14 30 1 18 6 30 15 30 8 0 13 -12 13 -30z m-163 -153
c23 -138 22 -147 -22 -147 -18 0 -23 14 -43 128 -12 70 -22 132 -22 139 0 10
48 23 60 15 2 -1 14 -62 27 -135z m1806 -28 c-12 -12 -26 -18 -32 -15 -15 9
-4 25 23 36 30 11 33 3 9 -21z m-1814 -308 c7 -5 11 -14 7 -20 -8 -12 -56 6
-56 21 0 11 31 10 49 -1z"/>
<path d="M1372 2159 c-341 -44 -632 -280 -743 -602 -15 -45 -31 -101 -35 -124
-7 -47 -13 -43 64 -46 9 0 41 5 70 11 29 7 56 11 61 9 5 -1 27 9 48 22 29 17
43 35 56 70 45 127 177 268 311 332 251 120 525 76 721 -115 73 -72 74 -73
143 -82 27 -4 42 -2 42 5 0 6 19 11 45 11 45 0 107 20 118 37 3 5 -13 38 -35
73 -145 221 -388 369 -656 400 -97 11 -120 11 -210 -1z m286 -25 c172 -35 331
-121 453 -243 59 -59 156 -188 147 -195 -1 -2 -53 -12 -115 -23 l-112 -19 -50
57 c-66 75 -173 145 -280 183 -79 28 -96 31 -216 31 -147 0 -217 -17 -332 -81
-125 -70 -255 -220 -298 -347 l-18 -54 -96 -17 c-53 -9 -106 -19 -118 -22
l-22 -6 15 62 c69 296 289 542 574 642 137 48 326 61 468 32z"/>
<path d="M1512 2118 c-22 -22 -14 -60 20 -88 19 -16 28 -31 24 -38 -11 -18
-23 -14 -29 8 -8 29 -37 26 -37 -5 0 -43 63 -61 93 -27 27 29 20 57 -19 87
-27 21 -33 30 -24 39 8 8 15 7 24 -6 14 -19 46 -25 46 -8 0 18 -40 50 -63 50
-13 0 -28 -5 -35 -12z"/>
<path d="M1334 2103 c2 -10 7 -48 11 -85 6 -58 9 -68 26 -68 15 0 19 7 19 35
0 24 5 35 15 35 10 0 15 -10 15 -30 0 -25 4 -30 25 -30 22 0 24 3 18 33 -3 17
-9 36 -14 41 -4 5 -4 17 2 28 6 12 6 25 -1 38 -9 16 -21 20 -66 20 -48 0 -55
-2 -50 -17z m74 -31 c2 -15 -2 -22 -12 -22 -11 0 -16 9 -16 26 0 31 23 28 28
-4z"/>
<path d="M1644 2083 c-3 -16 -11 -52 -18 -80 -14 -56 -12 -63 14 -63 13 0 21
18 33 75 21 95 21 95 -3 95 -13 0 -22 -9 -26 -27z"/>
<path d="M1223 2088 c-18 -6 -33 -16 -33 -23 0 -11 40 -137 46 -144 2 -2 24 2
49 9 33 9 45 17 42 29 -2 9 -10 14 -18 12 -8 -2 -22 -6 -31 -8 -13 -4 -18 0
-18 15 0 13 9 22 25 26 37 9 22 39 -16 31 -22 -5 -29 -3 -29 9 0 9 11 18 25
22 28 7 34 35 8 33 -10 -1 -33 -6 -50 -11z"/>
<path d="M1737 2065 c-9 -8 -23 -38 -33 -67 l-17 -52 27 -23 c48 -41 75 -30
106 41 25 56 21 88 -15 104 -34 16 -51 15 -68 -3z m59 -28 c3 -8 -4 -34 -15
-60 -15 -34 -24 -45 -36 -41 -16 7 -15 18 11 81 15 34 31 43 40 20z"/>
<path d="M1101 2041 c-24 -18 -24 -19 -7 -66 9 -27 16 -51 16 -53 0 -3 -17 15
-38 38 -36 41 -39 42 -64 29 l-27 -14 42 -72 c43 -77 44 -78 66 -64 11 7 7 18
-18 54 -44 65 -38 71 14 12 34 -38 47 -47 56 -38 9 9 7 26 -9 72 -25 72 -16
73 18 2 25 -54 27 -56 48 -42 11 7 5 25 -28 85 -23 42 -43 76 -43 76 -1 0 -13
-9 -26 -19z"/>
<path d="M1857 1951 c-40 -60 -44 -71 -31 -82 17 -14 16 -16 48 41 29 51 33
43 11 -20 -11 -32 -12 -46 -4 -56 20 -24 33 -15 76 54 30 49 39 70 31 79 -17
20 -23 16 -46 -33 -23 -47 -40 -56 -24 -13 22 59 23 78 3 88 -16 9 -25 1 -64
-58z"/>
<path d="M905 1910 c-18 -20 -18 -22 13 -65 17 -25 29 -45 26 -45 -3 0 -25 13
-48 30 l-43 29 -22 -22 -21 -23 60 -59 c54 -54 61 -58 75 -44 15 14 12 19 -30
53 -60 50 -50 59 14 13 41 -30 51 -34 61 -22 9 11 5 23 -17 57 -48 70 -47 76
0 23 40 -43 47 -47 62 -35 14 12 10 19 -42 72 -31 32 -60 58 -64 58 -3 0 -14
-9 -24 -20z"/>
<path d="M771 1757 c-18 -18 -14 -23 55 -72 60 -42 68 -45 82 -31 9 9 14 17
11 19 -81 62 -138 94 -148 84z"/>
<path d="M1310 1857 c-110 -33 -176 -73 -261 -157 -70 -70 -132 -165 -154
-239 l-7 -24 74 6 c41 4 98 11 128 17 91 19 346 62 462 79 31 5 60 11 65 14 4
3 44 10 87 16 58 8 82 8 92 0 8 -6 22 -8 31 -5 14 6 15 9 4 15 -9 6 -10 11 -2
15 17 11 31 -3 31 -31 0 -20 -4 -24 -20 -20 -11 3 -20 1 -20 -4 0 -21 41 -8
50 17 12 31 34 54 52 54 7 0 22 7 32 15 20 15 20 15 0 43 -32 43 -129 117
-198 151 -132 65 -306 79 -446 38z m340 -13 c30 -9 84 -31 120 -50 69 -36 190
-137 178 -149 -4 -4 -209 -43 -455 -86 -246 -43 -478 -84 -515 -92 -39 -8 -68
-9 -68 -4 0 25 78 152 126 205 153 169 398 240 614 176z"/>
<path d="M1384 1752 c-4 -19 -14 -36 -23 -39 -9 -3 -23 -7 -31 -9 -10 -4 -7
-11 14 -28 24 -18 28 -28 22 -49 -8 -32 0 -34 30 -6 18 17 26 19 42 10 34 -18
41 -13 29 18 -9 25 -8 33 6 49 24 26 21 32 -16 32 -25 0 -36 7 -49 28 l-17 27
-7 -33z"/>
<path d="M1600 1736 c0 -10 -9 -20 -20 -23 -24 -6 -26 -19 -5 -27 8 -3 15 -15
15 -27 0 -18 3 -19 15 -9 8 6 23 9 35 5 18 -6 20 -3 15 18 -4 14 -2 28 4 31
17 11 13 26 -4 19 -9 -3 -25 3 -35 12 -19 17 -20 17 -20 1z"/>
<path d="M1194 1663 c-4 -14 -14 -23 -25 -23 -23 0 -25 -15 -4 -24 8 -3 15
-15 15 -26 0 -21 14 -27 25 -10 3 6 18 7 32 4 23 -6 24 -5 14 14 -7 14 -8 23
-1 27 16 10 12 25 -6 25 -9 0 -23 8 -30 18 -13 16 -14 16 -20 -5z"/>
<path d="M2245 1129 c-88 -14 -125 -26 -125 -40 0 -5 -6 -9 -13 -9 -7 0 -19
-17 -26 -37 -58 -168 -224 -327 -401 -385 -89 -29 -251 -35 -344 -14 -104 25
-219 89 -300 168 -38 38 -75 68 -82 68 -7 0 -15 4 -18 9 -12 19 -226 -24 -241
-49 -17 -27 125 -206 224 -284 307 -240 741 -260 1059 -48 201 134 333 323
387 556 19 80 8 86 -120 65z m115 -20 c0 -32 -36 -144 -71 -217 -134 -289
-387 -472 -709 -513 -256 -33 -531 64 -724 255 -71 69 -152 184 -140 196 5 4
56 15 113 24 l104 17 61 -64 c176 -183 414 -251 661 -190 175 43 346 184 425
349 23 49 45 96 49 104 5 9 43 20 102 31 118 21 129 22 129 8z"/>
<path d="M2061 877 c-18 -18 -13 -24 32 -51 47 -29 36 -34 -20 -11 -45 19 -46
19 -60 -4 -10 -16 -5 -23 37 -54 32 -24 55 -34 66 -30 12 4 15 3 10 -5 -13
-21 5 -35 19 -15 12 16 9 21 -28 45 -46 31 -37 36 20 13 34 -14 38 -14 54 2
16 17 14 21 -51 70 -50 37 -71 48 -79 40z"/>
<path d="M1948 749 c-48 -28 -41 -75 20 -133 36 -34 72 -30 98 9 19 30 12 55
-28 101 -31 35 -58 42 -90 23z m66 -63 c29 -39 33 -56 12 -56 -14 0 -76 67
-76 82 0 21 41 4 64 -26z"/>
<path d="M1017 644 c-57 -78 -58 -84 -18 -88 8 -1 62 69 93 119 4 6 -1 16 -11
22 -15 10 -24 2 -64 -53z"/>
<path d="M1856 677 c-16 -12 -15 -18 25 -77 54 -83 51 -81 71 -66 15 11 13 19
-31 84 -42 64 -49 70 -65 59z"/>
<path d="M1081 591 c-19 -38 -31 -74 -27 -80 15 -24 33 -9 54 47 18 46 22 50
18 22 -3 -19 -8 -49 -11 -66 -12 -54 18 -50 56 7 45 66 57 62 19 -5 -30 -52
-30 -55 -12 -65 17 -9 23 -2 54 68 l36 79 -26 12 c-28 12 -30 12 -81 -58 l-20
-27 16 54 c15 51 14 55 -3 68 -30 22 -39 16 -73 -56z"/>
<path d="M1757 622 c-32 -35 -15 -82 29 -82 33 0 54 -10 54 -26 0 -8 -7 -14
-15 -14 -8 0 -15 5 -15 10 0 13 -11 13 -30 0 -13 -9 -12 -13 7 -29 26 -22 54
-18 79 10 29 32 9 70 -44 83 -47 12 -54 33 -9 28 29 -3 35 6 15 26 -18 18 -53
15 -71 -6z"/>
<path d="M1277 543 c-4 -27 -9 -65 -13 -85 -6 -33 -4 -38 13 -38 17 0 22 10
30 63 l10 62 2 -67 c1 -59 3 -68 20 -68 14 0 25 16 41 60 35 93 37 62 4 -52
-4 -14 1 -18 18 -18 22 0 25 6 35 78 6 42 8 81 3 85 -4 5 -18 7 -31 5 -17 -2
-27 -15 -40 -53 l-18 -50 -1 56 c0 50 -3 57 -22 63 -41 10 -45 7 -51 -41z"/>
<path d="M1622 582 c-28 -8 -27 -4 -7 -98 14 -59 21 -74 34 -72 12 3 15 13 14
41 -3 47 24 52 34 7 4 -20 11 -30 24 -30 28 0 30 14 10 54 -11 20 -17 45 -14
56 11 41 -31 60 -95 42z m55 -38 c7 -20 -18 -38 -29 -21 -13 20 -9 37 7 37 9
0 18 -7 22 -16z"/>
<path d="M1474 533 c3 -21 6 -59 6 -85 l0 -48 50 0 c44 0 50 3 50 21 0 18 -4
20 -30 14 -26 -6 -30 -4 -30 14 0 16 6 21 25 21 19 0 25 5 25 21 0 18 -4 20
-25 15 -20 -5 -25 -3 -25 14 0 16 7 20 30 20 22 0 28 4 24 15 -4 11 -21 15
-56 15 l-51 0 7 -37z"/>
<path d="M1976 1083 c-4 -4 -35 -10 -69 -14 -91 -9 -208 -29 -237 -40 -14 -5
-44 -11 -66 -13 -22 -1 -45 -6 -51 -9 -6 -4 -36 -9 -66 -11 -30 -2 -59 -6 -65
-10 -5 -3 -31 -8 -58 -11 -27 -3 -65 -11 -86 -17 -46 -14 -86 -4 -98 25 -8 20
-9 19 -9 -10 -1 -27 -5 -33 -22 -33 -16 0 -20 5 -16 20 3 11 1 23 -4 26 -5 3
-10 -2 -10 -10 -1 -9 -2 -21 -3 -27 0 -7 -23 -19 -51 -27 -27 -9 -55 -21 -61
-27 -27 -24 108 -144 221 -196 90 -41 275 -75 275 -51 0 5 -21 9 -47 11 -136
6 -289 73 -389 168 l-59 57 525 92 c289 51 526 91 528 90 1 -2 -15 -36 -35
-77 -54 -105 -163 -214 -263 -262 -78 -38 -174 -67 -222 -67 -15 0 -28 -4 -28
-10 0 -26 205 28 288 77 104 61 217 192 258 300 15 38 15 46 3 54 -17 11 -73
12 -83 2z"/>
<path d="M422 982 c-2 -33 21 -72 32 -54 4 7 2 12 -4 12 -6 0 -10 8 -9 18 3
30 -1 52 -9 52 -4 0 -9 -13 -10 -28z"/>
<path d="M1760 945 c-9 -11 -17 -12 -32 -4 -17 9 -19 8 -13 -10 3 -11 1 -30
-6 -42 -10 -20 -9 -21 10 -16 15 4 25 -1 33 -16 l11 -21 9 23 c4 13 17 25 28
28 21 6 21 6 0 20 -14 10 -20 22 -17 34 6 23 -6 25 -23 4z"/>
<path d="M1573 909 c-18 -19 -25 -20 -52 -11 -35 12 -35 13 -21 -23 8 -22 6
-32 -11 -56 l-20 -29 31 7 c27 5 35 1 55 -23 l22 -28 8 32 c5 26 13 34 36 39
35 7 37 16 5 31 -18 8 -26 20 -28 47 l-3 36 -22 -22z"/>
<path d="M1362 878 c-7 -10 -21 -14 -34 -11 -17 5 -19 3 -14 -15 4 -11 2 -23
-4 -27 -16 -10 -12 -25 7 -25 9 0 25 -7 35 -17 17 -15 18 -15 18 5 0 12 9 23
22 28 19 6 20 8 6 18 -9 7 -18 22 -20 36 -3 20 -5 21 -16 8z"/>
<path d="M2044 1449 c-8 -13 3 -121 16 -155 10 -26 17 -29 39 -15 11 7 11 21
1 82 -15 89 -35 121 -56 88z"/>
<path d="M1526 1361 c-10 -16 5 -61 20 -61 8 0 17 7 21 16 11 28 -27 69 -41
45z"/>
<path d="M1440 1272 c0 -10 7 -19 15 -19 8 0 15 9 15 19 0 10 -7 18 -15 18 -8
0 -15 -8 -15 -18z"/>
<path d="M0 180 c0 -17 7 -20 45 -20 l45 0 -6 -38 c-4 -29 -1 -43 14 -62 18
-22 30 -26 109 -31 48 -3 98 -10 110 -14 37 -12 63 25 63 90 l0 55 1091 0
1092 0 -6 -45 c-7 -68 4 -75 126 -76 216 -2 226 2 221 76 l-3 45 49 0 c43 0
50 3 50 20 0 20 -7 20 -1500 20 -1493 0 -1500 0 -1500 -20z m180 -56 c0 -31 2
-34 15 -20 18 17 20 30 4 20 -7 -4 -10 -1 -7 7 3 10 22 14 64 14 l59 0 6 -35
6 -35 2 38 c2 56 21 45 21 -13 0 -36 -4 -52 -15 -57 -22 -8 -33 6 -15 17 10 7
11 10 3 10 -8 0 -14 14 -15 33 l-1 32 -4 -32 c-3 -25 -9 -33 -24 -33 -14 0
-19 8 -21 33 l-1 32 -4 -32 -4 -32 -64 0 c-67 0 -90 13 -62 34 22 16 22 26 0
18 -16 -6 -16 -5 -4 10 19 24 34 17 43 -19 6 -24 7 -23 3 9 -2 20 0 37 6 37 5
0 9 -16 9 -36z m2548 8 c3 -9 -6 -12 -30 -11 -18 1 -37 1 -43 -1 -28 -7 -85 1
-85 13 0 17 152 17 158 -1z m160 6 c-7 -19 -148 -25 -148 -6 0 10 21 14 76 16
59 3 75 0 72 -10z m-78 -49 c64 0 80 -3 80 -15 0 -11 -11 -13 -50 -11 -29 1
-50 -2 -50 -8 0 -6 -3 -6 -8 1 -4 6 -41 10 -89 9 -54 -1 -83 2 -83 9 0 6 -4 5
-9 -3 -5 -7 -14 -10 -20 -7 -24 15 -8 26 39 26 33 0 50 -4 50 -12 0 -9 3 -10
8 -2 8 13 34 23 45 17 4 -2 43 -4 87 -4z"/>
</g>
</svg>
